<svg width="4" height="12" viewBox="0 0 4 12" fill="none" xmlns="http://www.w3.org/2000/svg">
<g id="Vector">
<path d="M1 10.2857C1 10.6802 1.44772 11 2 11C2.55228 11 3 10.6802 3 10.2857C3 9.89123 2.55228 9.57143 2 9.57143C1.44772 9.57143 1 9.89123 1 10.2857Z" stroke="#27272D" stroke-linecap="round" stroke-linejoin="round"/>
<path d="M1 6C1 6.39449 1.44772 6.71429 2 6.71429C2.55228 6.71429 3 6.39449 3 6C3 5.60551 2.55228 5.28571 2 5.28571C1.44772 5.28571 1 5.60551 1 6Z" stroke="#27272D" stroke-linecap="round" stroke-linejoin="round"/>
<path d="M1 1.71429C1 2.10877 1.44772 2.42857 2 2.42857C2.55228 2.42857 3 2.10877 3 1.71429C3 1.3198 2.55228 1 2 1C1.44772 1 1 1.3198 1 1.71429Z" stroke="#27272D" stroke-linecap="round" stroke-linejoin="round"/>
</g>
</svg>
