<svg width="26" height="26" viewBox="0 0 35 35" fill="none" xmlns="http://www.w3.org/2000/svg">
<g id="Interface / Exit">
<path id="Vector" d="M17.5002 21.8752L21.8752 17.5002M21.8752 17.5002L17.5002 13.1252M21.8752 17.5002H5.8335M5.8335 10.5702V10.5004C5.8335 8.86696 5.8335 8.04961 6.15139 7.4257C6.43102 6.87689 6.87689 6.43102 7.4257 6.15139C8.04961 5.8335 8.86696 5.8335 10.5004 5.8335H24.5004C26.1339 5.8335 26.9495 5.8335 27.5734 6.15139C28.1222 6.43102 28.5696 6.87689 28.8492 7.4257C29.1668 8.049 29.1668 8.86536 29.1668 10.4957V24.5054C29.1668 26.1357 29.1668 26.9509 28.8492 27.5742C28.5696 28.123 28.1222 28.5696 27.5734 28.8492C26.9501 29.1668 26.135 29.1668 24.5047 29.1668H10.4957C8.86536 29.1668 8.049 29.1668 7.4257 28.8492C6.87689 28.5696 6.43102 28.1225 6.15139 27.5737C5.8335 26.9498 5.8335 26.1336 5.8335 24.5002V24.4272" stroke="#808080" stroke-width="2" stroke-linecap="round" stroke-linejoin="round"/>
</g>
</svg>
