<svg width="308" height="318" viewBox="0 0 308 318" fill="none" xmlns="http://www.w3.org/2000/svg">
<path d="M8.28033 247.366L46.1676 247.263C54.9292 247.24 61.1368 256.072 61.1606 264.834C61.2397 294.013 84.9579 317.603 114.137 317.524C143.316 317.445 166.906 293.726 166.827 264.548C166.803 255.786 172.963 246.92 181.725 246.896L219.612 246.793C229.338 246.767 237.202 238.861 237.175 229.135L237.073 191.247C237.049 182.486 245.881 176.278 254.643 176.254C283.822 176.175 307.412 152.456 307.333 123.278C307.254 94.0987 283.536 70.5086 254.357 70.5877C245.595 70.6115 236.729 64.4518 236.705 55.6902L236.602 17.8024C236.576 8.07608 228.67 0.212757 218.944 0.239119L7.61153 0.811377C-2.11476 0.837739 -9.97811 8.74492 -9.95175 18.4712L-9.84906 56.3584C-9.82531 65.12 -0.959142 71.2797 7.80246 71.256C36.9814 71.1769 60.6996 94.7669 60.7787 123.946C60.8578 153.125 37.2678 176.843 8.08886 176.922C-0.672745 176.946 -9.50539 183.154 -9.48165 191.916L-9.37949 229.803C-9.35313 239.529 -1.44596 247.393 8.28033 247.366Z" fill="#FFD872"/>
</svg>
