<svg width="22" height="23" viewBox="0 0 22 23" fill="none" xmlns="http://www.w3.org/2000/svg">
<path id="Vector" d="M1.16398 9.15622C0.845199 8.84708 1.01836 8.28821 1.44953 8.2346L7.55901 7.47469C7.73474 7.45284 7.88738 7.33712 7.96149 7.16861L10.5384 1.31013C10.7203 0.896676 11.2808 0.896596 11.4626 1.31005L14.0395 7.16849C14.1136 7.33699 14.2653 7.45303 14.441 7.47488L20.5508 8.2346C20.982 8.28821 21.1547 8.84724 20.8359 9.15638L16.3195 13.5371C16.1896 13.663 16.1317 13.8506 16.1662 14.0326L17.3649 20.3605C17.4495 20.8071 16.9962 21.1531 16.6174 20.9307L11.249 17.7787C11.0946 17.6881 10.907 17.6885 10.7526 17.7791L5.3836 20.9299C5.00472 21.1523 4.55066 20.8071 4.63528 20.3605L5.83411 14.033C5.8686 13.851 5.8109 13.663 5.68098 13.537L1.16398 9.15622Z" fill="#FCAF15" stroke="#FCAF15" stroke-width="2" stroke-linecap="round" stroke-linejoin="round"/>
</svg>
